<svg xmlns="http://www.w3.org/2000/svg" viewBox="0 0 67.95 67.6"><defs><style>.cls-1{fill:#fff;}</style></defs><title>Asset 2</title><g id="Layer_2" data-name="Layer 2"><g id="Layer_2-2" data-name="Layer 2"><path class="cls-1" d="M34,67.6H1.33c-.62,0-.69-.22-1-.73A3.67,3.67,0,0,1,0,64.65Q0,33.35,0,2A2.69,2.69,0,0,1,1.1.07.4.4,0,0,1,1.37,0H65.52a1.09,1.09,0,0,1,.93.25c.12.13.46.07.7.08a.76.76,0,0,1,.8.81V66.21a1.33,1.33,0,0,1-1.38,1.39ZM5.88,32q0,12.67,0,25.35c0,.26,0,.66.18.75.36.23.56-.2.77-.41C8.4,56.15,10,54.57,11.53,53l4.4-4.38,4.42-4.42,4.7-4.71c1.69-1.68,3.35-3.38,5.06-5a2.27,2.27,0,0,0,.81-1.84c0-8.7,0-17.41,0-26.11,0-.65,0-.65-.66-.65H6.52c-.64,0-.64,0-.64.66ZM49.26,61.75H61.17c.61,0,.61,0,.61-.61V37.66c0-.61,0-.61-.61-.61H37.36c-.61,0-.61,0-.61.61V61.14c0,.61,0,.61.61.61ZM47.64,5.85H37.28c-.5,0-.53,0-.53.53V8.25q0,9.25,0,18.52a1.8,1.8,0,0,0,.15.5,1.51,1.51,0,0,0,.55-.22c.84-.8,1.64-1.62,2.48-2.42.21-.2.53-.28.74-.47.48-.44.92-.91,1.38-1.37l5.37-5.34,5-5.06c1.93-1.94,3.85-3.87,5.79-5.79.17-.17.37-.35.22-.57A.71.71,0,0,0,58,5.86ZM61.78,20.47q0-4.93,0-9.87a1.94,1.94,0,0,0-.16-.5c-.18.07-.4.08-.52.2-1,1-2,2-3,3-1.79,1.78-3.59,3.56-5.37,5.35S49.15,22.22,47.37,24c-2,2-4.09,4.09-6.12,6.14a1.58,1.58,0,0,0-.25.54,1.93,1.93,0,0,0,.56.18H61.18c.6,0,.6,0,.6-.62ZM20.46,61.75h9.83c.61,0,.61,0,.61-.61V46.52c0-1.69,0-3.38,0-5.07,0-.16-.08-.42-.19-.46a.6.6,0,0,0-.48.18c-1.22,1.2-2.43,2.43-3.65,3.64l-5.38,5.35c-1.68,1.68-3.35,3.37-5,5.06L10.37,61c-.18.18-.38.35-.22.58s.34.16.52.17Z"/></g></g></svg>